<svg xmlns="http://www.w3.org/2000/svg" width="240" height="56" viewBox="0 0 240 56" fill="none">
  <g transform="translate(4 2) scale(.78)">
    <path d="M13 18 23 8l5 11h8L41 8l10 10-4 18c-1.8 8.3-7.5 13-15 13s-13.2-4.7-15-13L13 18Z" stroke="#ff7a00" stroke-width="4" stroke-linejoin="round"/>
    <path d="M22 32c2.2-2.1 4.5-3.2 7-3.2S33.8 29.9 36 32M25 39c2.3 1.6 4.7 2.4 7 2.4s4.7-.8 7-2.4" stroke="#ff7a00" stroke-width="3.2" stroke-linecap="round"/>
    <circle cx="23.5" cy="27" r="2" fill="#ff7a00"/>
    <circle cx="40.5" cy="27" r="2" fill="#ff7a00"/>
  </g>
  <text x="62" y="36" font-family="Arial, Helvetica, sans-serif" font-size="27" font-weight="700" fill="#ff7a00">Nax</text>
  <text x="118" y="36" font-family="Arial, Helvetica, sans-serif" font-size="27" font-weight="700" fill="#242424">Admin</text>
</svg>
